<?xml version="1.0" ?><!DOCTYPE svg  PUBLIC '-//W3C//DTD SVG 1.1//EN'  'http://www.w3.org/Graphics/SVG/1.1/DTD/svg11.dtd'><svg fill='#ffff' enable-background="new 0 0 512 512" height="512px" id="camera" version="1.1" viewBox="0 0 512 512" width="512px" xml:space="preserve" xmlns="http://www.w3.org/2000/svg" xmlns:xlink="http://www.w3.org/1999/xlink"><g><path d="M255.29,321.775c-29.221,0-52.994-23.773-52.994-52.994c0-29.221,23.773-52.994,52.994-52.994s52.994,23.773,52.994,52.994   C308.284,298.002,284.511,321.775,255.29,321.775z M255.29,223.787c-24.81,0-44.994,20.184-44.994,44.994   c0,24.81,20.185,44.994,44.994,44.994s44.994-20.185,44.994-44.994C300.284,243.971,280.1,223.787,255.29,223.787z"/><path d="M430.675,203.905h-78.106c-2.209,0-4-1.791-4-4v-29.822c0-2.209,1.791-4,4-4h78.106c2.209,0,4,1.791,4,4v29.822   C434.675,202.114,432.884,203.905,430.675,203.905z M356.568,195.905h70.106v-21.822h-70.106V195.905z"/><path d="M465.917,225.441v-45.654c0-23.218-18.889-42.106-42.106-42.106H170.532v-22.982c0-2.209-1.791-4-4-4h-59.645   c-2.209,0-4,1.791-4,4v22.982H88.189c-23.218,0-42.106,18.889-42.106,42.106v45.654c0,0.01-0.003,0.019-0.003,0.029v85.03   c0,0.01,0.003,0.02,0.003,0.029v48.666c0,23.218,18.889,42.106,42.106,42.106h335.621c23.218,0,42.106-18.889,42.106-42.106   v-48.666c0-0.01,0.003-0.02,0.003-0.029v-85.03C465.92,225.46,465.917,225.451,465.917,225.441z M110.888,118.698h51.645v18.982   h-51.645V118.698z M54.083,229.47H185.66c-6.59,11.62-10.35,25.03-10.35,39.309c0,13.631,3.43,26.48,9.47,37.721H54.083V229.47z    M195.03,229.47c1.83-2.81,3.859-5.48,6.06-8c13.2-15.11,32.61-24.67,54.2-24.67s41,9.56,54.2,24.67c2.199,2.52,4.229,5.19,6.06,8   c7.41,11.31,11.72,24.82,11.72,39.309c0,13.82-3.92,26.75-10.709,37.721c-1.721,2.8-3.631,5.471-5.721,8   c-13.21,16.029-33.21,26.26-55.55,26.26s-42.34-10.23-55.55-26.26c-2.09-2.529-4-5.2-5.721-8   c-6.789-10.971-10.709-23.9-10.709-37.721C183.311,254.29,187.62,240.78,195.03,229.47z M457.917,359.195   c0,18.807-15.3,34.106-34.106,34.106H88.189c-18.807,0-34.106-15.3-34.106-34.106V314.5H189.7c14.47,20.7,38.479,34.26,65.59,34.26   s51.12-13.56,65.59-34.26h137.037V359.195z M457.917,306.5H325.8c6.04-11.24,9.47-24.09,9.47-37.721   c0-14.279-3.76-27.689-10.35-39.309h132.997V306.5z M457.917,221.47H319.74c-14.58-19.8-38.04-32.67-64.45-32.67   s-49.87,12.87-64.45,32.67H54.083v-41.683c0-18.807,15.3-34.106,34.106-34.106h18.698h59.645h257.278   c18.807,0,34.106,15.3,34.106,34.106V221.47z"/></g></svg>