<?xml version="1.0" ?><svg  height="32" id="svg4050" version="1.1" viewBox="0 0 32 32.000001" width="32" xmlns="http://www.w3.org/2000/svg" xmlns:cc="http://creativecommons.org/ns#" xmlns:dc="http://purl.org/dc/elements/1.1/" xmlns:inkscape="http://www.inkscape.org/namespaces/inkscape" xmlns:rdf="http://www.w3.org/1999/02/22-rdf-syntax-ns#" xmlns:sodipodi="http://sodipodi.sourceforge.net/DTD/sodipodi-0.dtd" xmlns:svg="http://www.w3.org/2000/svg"><defs id="defs4052"/><g id="layer1" transform="translate(0,-1020.3622)"><path d="M 9.5 5 A 0.50005 0.50005 0 0 0 9 5.5 L 9 9 L 3.5 9 A 0.50005 0.50005 0 0 0 3 9.5 L 3 26.5 A 0.50005 0.50005 0 0 0 3.5 27 L 28.5 27 A 0.50005 0.50005 0 0 0 29 26.5 L 29 9.5 A 0.50005 0.50005 0 0 0 28.5 9 L 23 9 L 23 5.5 A 0.50005 0.50005 0 0 0 22.5 5 L 9.5 5 z M 10 6 L 22 6 L 22 9.5 A 0.50005 0.50005 0 0 0 22.5 10 L 28 10 L 28 26 L 4 26 L 4 10 L 9.5 10 A 0.50005 0.50005 0 0 0 10 9.5 L 10 6 z M 16.5 10 C 12.363787 10 9 13.3638 9 17.5 C 9 21.6362 12.363787 25 16.5 25 C 20.636213 25 24 21.6362 24 17.5 C 24 13.3638 20.636213 10 16.5 10 z M 16.5 11 C 20.095773 11 23 13.9043 23 17.5 C 23 21.0958 20.095773 24 16.5 24 C 12.904227 24 10 21.0958 10 17.5 C 10 13.9043 12.904227 11 16.5 11 z M 25.5 11 C 24.677495 11 24 11.6775 24 12.5 C 24 13.3225 24.677495 14 25.5 14 C 26.322505 14 27 13.3225 27 12.5 C 27 11.6775 26.322505 11 25.5 11 z M 16.5 12 C 13.46835 12 10.99999 14.4684 11 17.5 C 10.99999 20.5317 13.46835 23 16.5 23 C 19.53165 23 22.00001 20.5317 22 17.5 C 22.00001 14.4684 19.53165 12 16.5 12 z M 25.5 12 C 25.782065 12 26 12.218 26 12.5 C 26 12.7821 25.782065 13 25.5 13 C 25.217935 13 25 12.7821 25 12.5 C 25 12.218 25.217935 12 25.5 12 z M 16.5 13 C 18.991211 13 21.000009 15.0088 21 17.5 C 21.000009 19.9912 18.991211 22 16.5 22 C 14.008789 22 11.999991 19.9912 12 17.5 C 11.999991 15.0088 14.008789 13 16.5 13 z " id="rect4726" style="color:#ffff;font-style:normal;font-variant:normal;font-weight:normal;font-stretch:normal;font-size:medium;line-height:normal;font-family:sans-serif;text-indent:0;text-align:start;text-decoration:none;text-decoration-line:none;text-decoration-style:solid;text-decoration-color:#ffff;letter-spacing:normal;word-spacing:normal;text-transform:none;direction:ltr;block-progression:tb;writing-mode:lr-tb;baseline-shift:baseline;text-anchor:start;white-space:normal;clip-rule:nonzero;display:inline;overflow:visible;visibility:visible;opacity:1;isolation:auto;mix-blend-mode:normal;color-interpolation:sRGB;color-interpolation-filters:linearRGB;solid-color:#ffff;solid-opacity:1;fill:#ffff;fill-opacity:1;fill-rule:nonzero;stroke:none;stroke-width:1;stroke-linecap:round;stroke-linejoin:round;stroke-miterlimit:4;stroke-dasharray:none;stroke-dashoffset:0;stroke-opacity:1;color-rendering:auto;image-rendering:auto;shape-rendering:auto;text-rendering:auto;enable-background:accumulate" transform="translate(0,1020.3622)"/></g></svg>