<svg enable-background="new 0 0 24 24" height="512" viewBox="0 0 24 24" width="512" xmlns="http://www.w3.org/2000/svg">
				    
				    <path fill='#ffff' d="m23 11h-1.051c-.47-4.717-4.232-8.479-8.949-8.949v-1.051c0-.552-.447-1-1-1s-1 .448-1 1v1.051c-4.717.47-8.479 4.232-8.949 8.949h-1.051c-.553 0-1 .448-1 1s.447 1 1 1h1.051c.471 4.717 4.232 8.479 8.949 8.949v1.051c0 .552.447 1 1 1s1-.448 1-1v-1.051c4.717-.471 8.479-4.232 8.949-8.949h1.051c.553 0 1-.448 1-1s-.447-1-1-1zm-10.014 8.933c-.036-.519-.457-.933-.986-.933s-.95.414-.986.933c-3.622-.448-6.498-3.324-6.946-6.946.519-.037.932-.459.932-.987s-.413-.95-.933-.986c.448-3.622 3.324-6.498 6.946-6.946.037.518.458.932.987.932s.95-.414.986-.933c3.622.448 6.498 3.324 6.946 6.946-.519.037-.932.459-.932.987s.413.95.933.986c-.449 3.623-3.324 6.498-6.947 6.947z"/></svg>