<?xml version="1.0" ?><svg viewBox="0 0 32 32" xmlns="http://www.w3.org/2000/svg"><defs><style>.cls-1{fill:#101820;}</style></defs><title/><g data-name="Layer 60" id="Layer_60"><circle class="cls-1" cx="16" cy="16" r="1"/><path class="cls-1" d="M16,18a2,2,0,1,1,2-2A2,2,0,0,1,16,18Zm0-2Z"/><circle class="cls-1" cx="16" cy="5" r="1"/><path class="cls-1" d="M16,7a2,2,0,1,1,2-2A2,2,0,0,1,16,7Zm0-2Z"/><circle class="cls-1" cx="16" cy="27" r="1"/><path class="cls-1" d="M16,29a2,2,0,1,1,2-2A2,2,0,0,1,16,29Zm0-2Z"/></g></svg>