<svg height="496pt" viewBox="0 0 496 496" width="496pt" xmlns="http://www.w3.org/2000/svg"><g fill="#ffff"><path d="m488 224h-17.28125c-11.441406-104.644531-94.074219-187.277344-198.71875-198.71875v-17.28125c0-4.417969-3.582031-8-8-8h-32c-4.417969 0-8 3.582031-8 8v17.28125c-104.644531 11.441406-187.277344 94.074219-198.71875 198.71875h-17.28125c-4.417969 0-8 3.582031-8 8v32c0 4.417969 3.582031 8 8 8h17.28125c11.441406 104.644531 94.074219 187.277344 198.71875 198.71875v17.28125c0 4.417969 3.582031 8 8 8h32c4.417969 0 8-3.582031 8-8v-17.28125c104.644531-11.441406 187.277344-94.074219 198.71875-198.71875h17.28125c4.417969 0 8-3.582031 8-8v-32c0-4.417969-3.582031-8-8-8zm-248-208h16v32h-16zm-224 240v-16h32v16zm240 224h-16v-32h16zm16-25.359375v-14.640625c0-4.417969-3.582031-8-8-8h-32c-4.417969 0-8 3.582031-8 8v14.640625c-95.820312-11.261719-171.378906-86.820313-182.640625-182.640625h14.640625c4.417969 0 8-3.582031 8-8v-32c0-4.417969-3.582031-8-8-8h-14.640625c11.261719-95.820312 86.820313-171.378906 182.640625-182.640625v14.640625c0 4.417969 3.582031 8 8 8h32c4.417969 0 8-3.582031 8-8v-14.640625c95.820312 11.261719 171.378906 86.820313 182.640625 182.640625h-14.640625c-4.417969 0-8 3.582031-8 8v32c0 4.417969 3.582031 8 8 8h14.640625c-11.261719 95.820312-86.820313 171.378906-182.640625 182.640625zm208-198.640625h-32v-16h32zm0 0"/><path d="m248 208c-22.089844 0-40 17.910156-40 40s17.910156 40 40 40 40-17.910156 40-40-17.910156-40-40-40zm0 64c-13.253906 0-24-10.746094-24-24s10.746094-24 24-24 24 10.746094 24 24c-.039062 13.238281-10.761719 23.960938-24 24zm0 0"/><path d="m384 240h-16.320312c-4.027344-59.929688-51.75-107.652344-111.679688-111.679688v-16.320312c0-4.417969-3.582031-8-8-8s-8 3.582031-8 8v16.320312c-59.929688 4.027344-107.652344 51.75-111.679688 111.679688h-16.320312c-4.417969 0-8 3.582031-8 8s3.582031 8 8 8h16.320312c4.027344 59.929688 51.75 107.652344 111.679688 111.679688v16.320312c0 4.417969 3.582031 8 8 8s8-3.582031 8-8v-16.320312c59.929688-4.027344 107.652344-51.75 111.679688-111.679688h16.320312c4.417969 0 8-3.582031 8-8s-3.582031-8-8-8zm-128 111.679688v-15.679688c0-4.417969-3.582031-8-8-8s-8 3.582031-8 8v15.679688c-51.097656-3.960938-91.683594-44.578126-95.601562-95.679688h15.601562c4.417969 0 8-3.582031 8-8s-3.582031-8-8-8h-15.601562c3.898437-51.097656 44.503906-91.703125 95.601562-95.601562v15.601562c0 4.417969 3.582031 8 8 8s8-3.582031 8-8v-15.601562c51.101562 3.917968 91.71875 44.503906 95.679688 95.601562h-15.679688c-4.417969 0-8 3.582031-8 8s3.582031 8 8 8h15.679688c-3.980469 51.101562-44.578126 91.699219-95.679688 95.679688zm0 0"/></g></svg>