<?xml version="1.0" ?><svg fill='#ffff' id="Layer_1" style="enable-background:new 0 0 32 32;" version="1.1" viewBox="0 0 32 32" xml:space="preserve" xmlns="http://www.w3.org/2000/svg" xmlns:xlink="http://www.w3.org/1999/xlink"><g><g><path d="M16,28c-2.1376953,0-4.2255859-0.4257813-6.2050781-1.2651367    c-0.5078125-0.215332-0.7460938-0.8022461-0.5302734-1.3110352c0.2167969-0.5092773,0.8027344-0.7451172,1.3115234-0.5297852    C12.3066406,25.6279297,14.1318359,26,16,26c6.0048828,0,11.4316406-3.9116211,13.9238281-10    c-0.9228516-2.2514648-2.296875-4.2861328-3.9882813-5.9023438c-0.3994141-0.3818359-0.4140625-1.0146484-0.0322266-1.4140625    c0.3818359-0.3989258,1.0146484-0.4135742,1.4130859-0.0322266c1.9931641,1.9047852,3.5898438,4.3217773,4.6171875,6.9892578    c0.0888672,0.2314453,0.0888672,0.4873047,0,0.71875C29.2099609,23.4306641,22.9560547,28,16,28z"/></g><g><path fil='#ffff' d="M7.5908203,25.4086914c-0.1914063,0-0.3847656-0.0546875-0.5556641-0.1694336    c-3.0839844-2.0664063-5.5585938-5.2197266-6.96875-8.8798828c-0.0888672-0.2314453-0.0888672-0.4873047,0-0.71875    C2.7900391,8.5693359,9.0439453,4,16,4c3.1699219,0,6.2695313,0.9545898,8.9648438,2.7607422    c0.4589844,0.3071289,0.5810547,0.9282227,0.2744141,1.387207c-0.3085938,0.4594727-0.9296875,0.581543-1.3876953,0.2739258    C21.4863281,6.8374023,18.7714844,6,16,6C9.9951172,6,4.5683594,9.9116211,2.0761719,16    c1.2822266,3.1254883,3.4277344,5.8061523,6.0722656,7.578125c0.4589844,0.3071289,0.5810547,0.9282227,0.2744141,1.387207    C8.2294922,25.253418,7.9130859,25.4086914,7.5908203,25.4086914z"/></g><g><path d="M3,30c-0.2558594,0-0.5117188-0.0976563-0.7070313-0.2929688c-0.390625-0.390625-0.390625-1.0234375,0-1.4140625l26-26    c0.390625-0.390625,1.0234375-0.390625,1.4140625,0s0.390625,1.0234375,0,1.4140625l-26,26    C3.5117188,29.9023438,3.2558594,30,3,30z"/></g><g><g><path d="M14.258728,21.741272C14.8100586,21.9082642,15.394165,22,16,22c3.3137207,0,6-2.6862793,6-6     c0-0.605835-0.0917358-1.1899414-0.258728-1.741272L14.258728,21.741272z"/></g><g><path d="M20.2426758,11.7573242C19.1568604,10.6715698,17.6568604,10,16,10c-3.3137207,0-6,2.6862793-6,6     c0,1.6568604,0.6715698,3.1568604,1.7573853,4.2426147L20.2426758,11.7573242z"/></g></g></g></svg>