<svg id="Capa_1" enable-background="new 0 0 512 512" height="512" viewBox="0 0 512 512" width="512" xmlns="http://www.w3.org/2000/svg"><path fill='#ffff' d="m432.779 336.723c50.573-36.945 79.221-87.419 79.221-140.723 0-108.075-114.841-196-256-196s-256 87.925-256 196c0 47.678 22.894 93.144 64.734 129.169-2.411 6.493-3.734 13.51-3.734 20.831 0 24.988 15.359 46.448 37.128 55.459-8.207 11.965-21.945 19.541-37.128 19.541h-46c-8.284 0-15 6.716-15 15s6.716 15 15 15h46c30.468 0 57.45-18.316 69.042-45.682 16.775-2.546 31.286-12.067 40.486-25.498 22.569 6.122 46.052 9.74 70.104 10.822l.368 106.41c.021 6.241 3.906 11.817 9.752 14 5.809 2.17 12.408.549 16.542-4.181l83.82-95.902 126.216 10.078c6.214.493 12.077-2.896 14.746-8.523s1.584-12.317-2.726-16.812zm-311.779 39.277c-16.542 0-30-13.458-30-30s13.458-30 30-30 30 13.458 30 30-13.458 30-30 30zm59.739-24.516c.164-1.808.261-3.634.261-5.484 0-33.084-26.916-60-60-60-14.871 0-28.484 5.45-38.979 14.442-33.654-29.888-52.021-66.552-52.021-104.442 0-43.264 23.015-84.385 64.805-115.787 43.091-32.38 100.338-50.213 161.195-50.213s118.104 17.833 161.195 50.213c41.79 31.402 64.805 72.523 64.805 115.787 0 44.608-25.43 87.387-70.198 118.85l-146.096-152.34c-4.246-4.427-10.76-5.824-16.445-3.525-5.687 2.298-9.402 7.826-9.381 13.959l.649 187.661c-20.508-1.02-40.522-4.074-59.79-9.121zm165.24 28.98c-4.725-.378-9.363 1.506-12.488 5.081l-62.629 71.657-.281-81.149c0-.011.002-.022.002-.034 0-.014-.002-.027-.002-.041l-.573-165.638 170.382 177.662z"/></svg>