<?xml version="1.0" ?><!DOCTYPE svg  PUBLIC '-//W3C//DTD SVG 1.1//EN'  'http://www.w3.org/Graphics/SVG/1.1/DTD/svg11.dtd'><svg fill='#ffff' enable-background="new 0 0 512 512" height="512px" id="Layer_1" version="1.1" viewBox="0 0 512 512" width="512px" xml:space="preserve" xmlns="http://www.w3.org/2000/svg" xmlns:xlink="http://www.w3.org/1999/xlink"><g><path d="M256.108,106.02c-91.39,0-162.63,57.202-250,149.943c75.277,79.298,138.444,150.053,250,150.053   s193.547-89.572,250-148.377C448.32,188.751,366.322,106.02,256.108,106.02z M256.108,389.349   c-99.032,0-158.813-61.422-227.018-133.37c81.152-84.619,145.679-133.292,227.018-133.292c96.297,0,171.557,69.442,227.555,134.285   C428.593,314.393,354.033,389.349,256.108,389.349z" fill="#ffff"/><path d="M256.108,156.027c-55.143,0-100,44.857-100,99.992s44.857,99.992,100,99.992s100-44.857,100-99.992   S311.252,156.027,256.108,156.027z M256.108,339.345c-45.948,0-83.333-37.378-83.333-83.325c0-45.947,37.386-83.326,83.333-83.326   s83.333,37.378,83.333,83.326C339.442,301.967,302.056,339.345,256.108,339.345z" fill="#ffff"/><path d="M256.108,197.687c-32.162,0-58.333,26.172-58.333,58.333c0,32.161,26.172,58.333,58.333,58.333   c32.162,0,58.333-26.173,58.333-58.333C314.442,223.858,288.27,197.687,256.108,197.687z M256.108,297.687   c-22.973,0-41.667-18.693-41.667-41.667c0-22.974,18.693-41.667,41.667-41.667s41.667,18.692,41.667,41.667   C297.775,278.993,279.082,297.687,256.108,297.687z" fill="#ffff"/></g></svg>