<?xml version="1.0" encoding="iso-8859-1"?>
<!-- Generator: Adobe Illustrator 19.0.0, SVG Export Plug-In . SVG Version: 6.00 Build 0)  -->
<svg version="1.1" id="Capa_1" xmlns="http://www.w3.org/2000/svg" xmlns:xlink="http://www.w3.org/1999/xlink" x="0px" y="0px"
	 viewBox="0 0 512 512" style="enable-background:new 0 0 512 512;" xml:space="preserve">
<g>
	<g>
		<path fill='#ffff' d="M496.64,424.96l-71.68-71.68c23.04-35.84,35.84-76.8,35.84-122.88C460.8,102.4,358.4,0,230.4,0S0,102.4,0,230.4
			s102.4,230.4,230.4,230.4c46.08,0,87.04-12.8,122.88-35.84l71.68,71.68c20.48,20.48,51.2,20.48,71.68,0
			C517.12,476.16,517.12,445.44,496.64,424.96z M230.4,409.6c-99.84,0-179.2-79.36-179.2-179.2S130.56,51.2,230.4,51.2
			s179.2,79.36,179.2,179.2S327.68,409.6,230.4,409.6z"/>
	</g>
</g>
<g>
	<g>
		<path fill='#ffff' d="M332.8,204.8H256V128c0-15.36-10.24-25.6-25.6-25.6c-15.36,0-25.6,12.8-25.6,25.6v76.8H128c-12.8,0-25.6,10.24-25.6,25.6
			c0,15.36,10.24,25.6,25.6,25.6h76.8v76.8c0,15.36,10.24,25.6,25.6,25.6c15.36,0,25.6-10.24,25.6-25.6V256h76.8
			c15.36,0,25.6-10.24,25.6-25.6C358.4,215.04,345.6,204.8,332.8,204.8z"/>
	</g>
</g>
<g>
</g>
<g>
</g>
<g>
</g>
<g>
</g>
<g>
</g>
<g>
</g>
<g>
</g>
<g>
</g>
<g>
</g>
<g>
</g>
<g>
</g>
<g>
</g>
<g>
</g>
<g>
</g>
<g>
</g>
</svg>
